<mxfile host="app.diagrams.net" modified="2023-12-01T07:05:52.448Z" agent="Mozilla/5.0 (Windows NT 10.0; Win64; x64) AppleWebKit/537.36 (KHTML, like Gecko) Chrome/119.0.0.0 Safari/537.36" version="22.1.5" etag="b07kuxTVW3ZY6J9gePgc" type="github">
  <diagram name="페이지-1" id="A0x8U8G-mb5d4Z2WIxfc">
    <mxGraphModel>
      <root>
        <mxCell id="0" />
        <mxCell id="1" parent="0" />
      </root>
    </mxGraphModel>
  </diagram>
</mxfile>
